<svg xmlns="http://www.w3.org/2000/svg" xmlns:xlink="http://www.w3.org/1999/xlink" xmlns:lucid="lucid" width="1122" height="962"><g transform="translate(261 41)" lucid:page-tab-id="0_0"><path d="M-500-500h1500v1500H-500z" fill="#fff"/><path d="M-240-14a6 6 0 0 1 6-6H34a6 6 0 0 1 6 6v368a6 6 0 0 1-6 6h-268a6 6 0 0 1-6-6z" stroke="#282c33" stroke-width="2" fill="#fff"/><path d="M-180 26a6 6 0 0 1 6-6h148a6 6 0 0 1 6 6v114c-26.72-20.04-43.36-20.04-53.44-20.04-16 0-37.28 20.04-53.28 20.04-9.92 0-26.72 0-53.28-20.04z" stroke="#282c33" stroke-width="2" fill="#e3fae3"/><use xlink:href="#a" transform="matrix(1,0,0,1,-175,25) translate(17.006172839506178 48.71527777777778)"/><use xlink:href="#b" transform="matrix(1,0,0,1,-175,25) translate(88.54938271604938 48.71527777777778)"/><path d="M-180 206a6 6 0 0 1 6-6h148a6 6 0 0 1 6 6v114c-26.72-20.04-43.36-20.04-53.44-20.04-16 0-37.28 20.04-53.28 20.04-9.92 0-26.72 0-53.28-20.04z" stroke="#282c33" stroke-width="2" fill="#e3fae3"/><use xlink:href="#c" transform="matrix(1,0,0,1,-175,205) translate(13.981481481481481 37.46527777777778)"/><use xlink:href="#d" transform="matrix(1,0,0,1,-175,205) translate(17.006172839506178 64.13194444444446)"/><use xlink:href="#b" transform="matrix(1,0,0,1,-175,205) translate(88.54938271604938 64.13194444444446)"/><path d="M200-14a6 6 0 0 1 6-6h228a6 6 0 0 1 6 6v548a6 6 0 0 1-6 6H206a6 6 0 0 1-6-6z" stroke="#fff" stroke-width="2" fill="#635dff"/><use xlink:href="#e" transform="matrix(1,0,0,1,212,-8) translate(4.925925925925995 273.6111111111111)"/><path d="M-180 426a6 6 0 0 1 6-6h148a6 6 0 0 1 6 6v114c-26.72-20.04-43.36-20.04-53.44-20.04-16 0-37.28 20.04-53.28 20.04-9.92 0-26.72 0-53.28-20.04z" stroke="#282c33" stroke-width="2" fill="#ffd9d9"/><use xlink:href="#f" transform="matrix(1,0,0,1,-175,425) translate(14.012345679012341 48.71527777777778)"/><path d="M-14.5 80.2H84a6 6 0 0 1 6 6V254a6 6 0 0 0 6 6h69.67" stroke="#3a414a" stroke-width="9" fill="none"/><path d="M-14.38 84.7H-19v-8.96h4.62z" stroke="#3a414a" stroke-width=".05" fill="#3a414a"/><path d="M184.44 260l-14.27 4.63v-9.26z" stroke="#3a414a" stroke-width="9" fill="#3a414a"/><path d="M-14.5 260.2h180.17" stroke="#3a414a" stroke-width="9" fill="none"/><path d="M-14.38 264.7H-19v-8.96h4.62z" stroke="#3a414a" stroke-width=".05" fill="#3a414a"/><path d="M184.44 260.2l-14.27 4.65v-9.27z" stroke="#3a414a" stroke-width="9" fill="#3a414a"/><path d="M-14.5 480H84a6 6 0 0 0 6-6V266a6 6 0 0 1 6-6h69.67" stroke="#3a414a" stroke-width="9" fill="none"/><path d="M-14.38 484.48H-19v-8.96h4.62z" stroke="#3a414a" stroke-width=".05" fill="#3a414a"/><path d="M184.44 260l-14.27 4.63v-9.26z" stroke="#3a414a" stroke-width="9" fill="#3a414a"/><path d="M-240 666a6 6 0 0 1 6-6H834a6 6 0 0 1 6 6v228a6 6 0 0 1-6 6H-234a6 6 0 0 1-6-6z" stroke="#282c33" stroke-width="2" fill="#fff"/><path d="M-240 666a6 6 0 0 1 6-6h148a6 6 0 0 1 6 6v48a6 6 0 0 1-6 6h-148a6 6 0 0 1-6-6z" stroke="#000" stroke-opacity="0" stroke-width="2" fill="#fff" fill-opacity="0"/><use xlink:href="#g" transform="matrix(1,0,0,1,-235,665) translate(11.888888888888914 31.569444444444436)"/><path d="M-60 686a6 6 0 0 1 6-6H94a6 6 0 0 1 6 6v168a6 6 0 0 1-6 6H-54a6 6 0 0 1-6-6z" stroke="#282c33" stroke-width="2" fill="#ffdda6"/><use xlink:href="#h" transform="matrix(1,0,0,1,-48,692) translate(17.47530864197531 56.77777777777778)"/><use xlink:href="#i" transform="matrix(1,0,0,1,-48,692) translate(112.35185185185185 56.77777777777778)"/><use xlink:href="#j" transform="matrix(1,0,0,1,-48,692) translate(5.808641975308639 83.44444444444446)"/><use xlink:href="#k" transform="matrix(1,0,0,1,-48,692) translate(62.413580246913575 83.44444444444446)"/><use xlink:href="#l" transform="matrix(1,0,0,1,-48,692) translate(61.82716049382716 110.11111111111111)"/><path d="M140 686a6 6 0 0 1 6-6h148a6 6 0 0 1 6 6v168a6 6 0 0 1-6 6H146a6 6 0 0 1-6-6z" stroke="#282c33" stroke-width="2" fill="#ffdda6"/><use xlink:href="#h" transform="matrix(1,0,0,1,152,692) translate(17.47530864197531 56.77777777777778)"/><use xlink:href="#i" transform="matrix(1,0,0,1,152,692) translate(112.35185185185185 56.77777777777778)"/><use xlink:href="#j" transform="matrix(1,0,0,1,152,692) translate(5.808641975308639 83.44444444444446)"/><use xlink:href="#k" transform="matrix(1,0,0,1,152,692) translate(62.413580246913575 83.44444444444446)"/><use xlink:href="#m" transform="matrix(1,0,0,1,152,692) translate(61.82716049382716 110.11111111111111)"/><path d="M340 686a6 6 0 0 1 6-6h148a6 6 0 0 1 6 6v168a6 6 0 0 1-6 6H346a6 6 0 0 1-6-6z" stroke="#282c33" stroke-width="2" fill="#ffdda6"/><use xlink:href="#h" transform="matrix(1,0,0,1,352,692) translate(17.47530864197531 56.77777777777778)"/><use xlink:href="#i" transform="matrix(1,0,0,1,352,692) translate(112.35185185185185 56.77777777777778)"/><use xlink:href="#j" transform="matrix(1,0,0,1,352,692) translate(5.808641975308639 83.44444444444446)"/><use xlink:href="#k" transform="matrix(1,0,0,1,352,692) translate(62.413580246913575 83.44444444444446)"/><use xlink:href="#n" transform="matrix(1,0,0,1,352,692) translate(61.82716049382716 110.11111111111111)"/><path d="M620 686a6 6 0 0 1 6-6h148a6 6 0 0 1 6 6v168a6 6 0 0 1-6 6H626a6 6 0 0 1-6-6z" stroke="#282c33" stroke-width="2" fill="#ffdda6"/><use xlink:href="#h" transform="matrix(1,0,0,1,632,692) translate(17.47530864197531 56.77777777777778)"/><use xlink:href="#i" transform="matrix(1,0,0,1,632,692) translate(112.35185185185185 56.77777777777778)"/><use xlink:href="#j" transform="matrix(1,0,0,1,632,692) translate(5.808641975308639 83.44444444444446)"/><use xlink:href="#k" transform="matrix(1,0,0,1,632,692) translate(62.413580246913575 83.44444444444446)"/><use xlink:href="#o" transform="matrix(1,0,0,1,632,692) translate(60.00617283950617 110.11111111111111)"/><path d="M320 562.7V604a6 6 0 0 1-6 6H26a6 6 0 0 0-6 6v31.8" stroke="#3a414a" stroke-width="8" fill="none"/><path d="M320 548.86l7.64 12.9h-15.28zM20 666.06l-4.63-14.27h9.27z" stroke="#3a414a" stroke-width="8" fill="#3a414a"/><path d="M320 562.7V604a6 6 0 0 1-6 6h-88a6 6 0 0 0-6 6v31.8" stroke="#3a414a" stroke-width="8" fill="none"/><path d="M320 548.86l7.64 12.9h-15.28zM220 666.06l-4.63-14.27h9.26z" stroke="#3a414a" stroke-width="8" fill="#3a414a"/><path d="M320 562.7V604a6 6 0 0 0 6 6h88a6 6 0 0 1 6 6v31.8" stroke="#3a414a" stroke-width="8" fill="none"/><path d="M320 548.86l7.64 12.9h-15.28zM420 666.06l-4.63-14.27h9.26z" stroke="#3a414a" stroke-width="8" fill="#3a414a"/><path d="M320 562.7V604a6 6 0 0 0 6 6h368a6 6 0 0 1 6 6v31.8" stroke="#3a414a" stroke-width="8" fill="none"/><path d="M320 548.86l7.64 12.9h-15.28zM700 666.06l-4.63-14.27h9.26z" stroke="#3a414a" stroke-width="8" fill="#3a414a"/><path d="M639 26a6 6 0 0 1 6-6h148a6 6 0 0 1 6 6v114c-26.72-20.04-43.36-20.04-53.44-20.04-16 0-37.28 20.04-53.28 20.04-9.92 0-26.72 0-53.28-20.04z" stroke="#282c33" stroke-width="2" fill="#cfe4ff"/><g><use xlink:href="#p" transform="matrix(1,0,0,1,644.00005,25) translate(35.37654320987655 33.326388888888886)"/><use xlink:href="#q" transform="matrix(1,0,0,1,644.00005,25) translate(20.64197530864198 70.65972222222221)"/></g><path d="M639 206a6 6 0 0 1 6-6h148a6 6 0 0 1 6 6v114c-26.72-20.04-43.36-20.04-53.44-20.04-16 0-37.28 20.04-53.28 20.04-9.92 0-26.72 0-53.28-20.04z" stroke="#282c33" stroke-width="2" fill="#cfe4ff"/><g><use xlink:href="#r" transform="matrix(1,0,0,1,644.00005,205) translate(46.5246913580247 33.326388888888886)"/><use xlink:href="#s" transform="matrix(1,0,0,1,644.00005,205) translate(7.679012345679027 70.65972222222221)"/></g><path d="M639 366a6 6 0 0 1 6-6h148a6 6 0 0 1 6 6v114c-26.72-20.04-43.36-20.04-53.44-20.04-16 0-37.28 20.04-53.28 20.04-9.92 0-26.72 0-53.28-20.04z" stroke="#282c33" stroke-width="2" fill="#cfe4ff"/><g><use xlink:href="#t" transform="matrix(1,0,0,1,644.00005,365) translate(6.771604938271608 33.326388888888886)"/><use xlink:href="#u" transform="matrix(1,0,0,1,644.00005,365) translate(23.234567901234577 70.65972222222221)"/></g><path d="M445 260h88.5a6 6 0 0 0 6-6V88a6 6 0 0 1 6-6h61.3" stroke="#3a414a" stroke-width="8" fill="none"/><path d="M445.1 263.98H441v-7.96h4.1z" stroke="#3a414a" stroke-width=".05" fill="#3a414a"/><path d="M625.06 82l-14.27 4.64v-9.28z" stroke="#3a414a" stroke-width="8" fill="#3a414a"/><path d="M445 260h161.8" stroke="#3a414a" stroke-width="8" fill="none"/><path d="M445.1 263.98H441v-7.96h4.1z" stroke="#3a414a" stroke-width=".05" fill="#3a414a"/><path d="M625.06 260l-14.27 4.63v-9.26z" stroke="#3a414a" stroke-width="8" fill="#3a414a"/><path d="M445 260h88.5a6 6 0 0 1 6 6v148a6 6 0 0 0 6 6h61.3" stroke="#3a414a" stroke-width="8" fill="none"/><path d="M445.1 263.98H441v-7.96h4.1z" stroke="#3a414a" stroke-width=".05" fill="#3a414a"/><path d="M625.06 420l-14.27 4.63v-9.26z" stroke="#3a414a" stroke-width="8" fill="#3a414a"/><defs><path fill="#3a414a" d="M30-248c118-7 216 8 213 122C240-48 200 0 122 0H30v-248zM63-27c89 8 146-16 146-99s-60-101-146-95v194" id="v"/><path fill="#3a414a" d="M100-194c63 0 86 42 84 106H49c0 40 14 67 53 68 26 1 43-12 49-29l28 8c-11 28-37 45-77 45C44 4 14-33 15-96c1-61 26-98 85-98zm52 81c6-60-76-77-97-28-3 7-6 17-6 28h103" id="w"/><path fill="#3a414a" d="M115-194c53 0 69 39 70 98 0 66-23 100-70 100C84 3 66-7 56-30L54 0H23l1-261h32v101c10-23 28-34 59-34zm-8 174c40 0 45-34 45-75 0-40-5-75-45-74-42 0-51 32-51 76 0 43 10 73 51 73" id="x"/><path fill="#3a414a" d="M84 4C-5 8 30-112 23-190h32v120c0 31 7 50 39 49 72-2 45-101 50-169h31l1 190h-30c-1-10 1-25-2-33-11 22-28 36-60 37" id="y"/><path fill="#3a414a" d="M177-190C167-65 218 103 67 71c-23-6-38-20-44-43l32-5c15 47 100 32 89-28v-30C133-14 115 1 83 1 29 1 15-40 15-95c0-56 16-97 71-98 29-1 48 16 59 35 1-10 0-23 2-32h30zM94-22c36 0 50-32 50-73 0-42-14-75-50-75-39 0-46 34-46 75s6 73 46 73" id="z"/><g id="a"><use transform="matrix(0.06172839506172839,0,0,0.06172839506172839,0,0)" xlink:href="#v"/><use transform="matrix(0.06172839506172839,0,0,0.06172839506172839,15.987654320987653,0)" xlink:href="#w"/><use transform="matrix(0.06172839506172839,0,0,0.06172839506172839,28.333333333333332,0)" xlink:href="#x"/><use transform="matrix(0.06172839506172839,0,0,0.06172839506172839,40.67901234567901,0)" xlink:href="#y"/><use transform="matrix(0.06172839506172839,0,0,0.06172839506172839,53.02469135802469,0)" xlink:href="#z"/></g><path fill="#3a414a" d="M205 0l-28-72H64L36 0H1l101-248h38L239 0h-34zm-38-99l-47-123c-12 45-31 82-46 123h93" id="A"/><path fill="#3a414a" d="M30-248c87 1 191-15 191 75 0 78-77 80-158 76V0H30v-248zm33 125c57 0 124 11 124-50 0-59-68-47-124-48v98" id="B"/><path fill="#3a414a" d="M194 0L95-120 63-95V0H30v-248h33v124l119-124h40L117-140 236 0h-42" id="C"/><g id="b"><use transform="matrix(0.06172839506172839,0,0,0.06172839506172839,0,0)" xlink:href="#A"/><use transform="matrix(0.06172839506172839,0,0,0.06172839506172839,14.814814814814813,0)" xlink:href="#B"/><use transform="matrix(0.06172839506172839,0,0,0.06172839506172839,29.629629629629626,0)" xlink:href="#C"/></g><path fill="#3a414a" d="M33 0v-248h34V0H33" id="D"/><path fill="#3a414a" d="M117-194c89-4 53 116 60 194h-32v-121c0-31-8-49-39-48C34-167 62-67 57 0H25l-1-190h30c1 10-1 24 2 32 11-22 29-35 61-36" id="E"/><path fill="#3a414a" d="M135-143c-3-34-86-38-87 0 15 53 115 12 119 90S17 21 10-45l28-5c4 36 97 45 98 0-10-56-113-15-118-90-4-57 82-63 122-42 12 7 21 19 24 35" id="F"/><path fill="#3a414a" d="M59-47c-2 24 18 29 38 22v24C64 9 27 4 27-40v-127H5v-23h24l9-43h21v43h35v23H59v120" id="G"/><path fill="#3a414a" d="M114-163C36-179 61-72 57 0H25l-1-190h30c1 12-1 29 2 39 6-27 23-49 58-41v29" id="H"/><path fill="#3a414a" d="M210-169c-67 3-38 105-44 169h-31v-121c0-29-5-50-35-48C34-165 62-65 56 0H25l-1-190h30c1 10-1 24 2 32 10-44 99-50 107 0 11-21 27-35 58-36 85-2 47 119 55 194h-31v-121c0-29-5-49-35-48" id="I"/><path fill="#3a414a" d="M141-36C126-15 110 5 73 4 37 3 15-17 15-53c-1-64 63-63 125-63 3-35-9-54-41-54-24 1-41 7-42 31l-33-3c5-37 33-52 76-52 45 0 72 20 72 64v82c-1 20 7 32 28 27v20c-31 9-61-2-59-35zM48-53c0 20 12 33 32 33 41-3 63-29 60-74-43 2-92-5-92 41" id="J"/><path fill="#3a414a" d="M24 0v-261h32V0H24" id="K"/><g id="c"><use transform="matrix(0.06172839506172839,0,0,0.06172839506172839,0,0)" xlink:href="#D"/><use transform="matrix(0.06172839506172839,0,0,0.06172839506172839,6.172839506172839,0)" xlink:href="#E"/><use transform="matrix(0.06172839506172839,0,0,0.06172839506172839,18.51851851851852,0)" xlink:href="#F"/><use transform="matrix(0.06172839506172839,0,0,0.06172839506172839,29.62962962962963,0)" xlink:href="#G"/><use transform="matrix(0.06172839506172839,0,0,0.06172839506172839,35.80246913580247,0)" xlink:href="#H"/><use transform="matrix(0.06172839506172839,0,0,0.06172839506172839,43.148148148148145,0)" xlink:href="#y"/><use transform="matrix(0.06172839506172839,0,0,0.06172839506172839,55.49382716049382,0)" xlink:href="#I"/><use transform="matrix(0.06172839506172839,0,0,0.06172839506172839,73.9506172839506,0)" xlink:href="#w"/><use transform="matrix(0.06172839506172839,0,0,0.06172839506172839,86.29629629629629,0)" xlink:href="#E"/><use transform="matrix(0.06172839506172839,0,0,0.06172839506172839,98.64197530864197,0)" xlink:href="#G"/><use transform="matrix(0.06172839506172839,0,0,0.06172839506172839,104.81481481481481,0)" xlink:href="#J"/><use transform="matrix(0.06172839506172839,0,0,0.06172839506172839,117.1604938271605,0)" xlink:href="#K"/></g><g id="d"><use transform="matrix(0.06172839506172839,0,0,0.06172839506172839,0,0)" xlink:href="#v"/><use transform="matrix(0.06172839506172839,0,0,0.06172839506172839,15.987654320987653,0)" xlink:href="#w"/><use transform="matrix(0.06172839506172839,0,0,0.06172839506172839,28.333333333333332,0)" xlink:href="#x"/><use transform="matrix(0.06172839506172839,0,0,0.06172839506172839,40.67901234567901,0)" xlink:href="#y"/><use transform="matrix(0.06172839506172839,0,0,0.06172839506172839,53.02469135802469,0)" xlink:href="#z"/></g><path fill="#fff" d="M240 0l2-218c-23 76-54 145-80 218h-23L58-218 59 0H30v-248h44l77 211c21-75 51-140 76-211h43V0h-30" id="L"/><path fill="#fff" d="M141-36C126-15 110 5 73 4 37 3 15-17 15-53c-1-64 63-63 125-63 3-35-9-54-41-54-24 1-41 7-42 31l-33-3c5-37 33-52 76-52 45 0 72 20 72 64v82c-1 20 7 32 28 27v20c-31 9-61-2-59-35zM48-53c0 20 12 33 32 33 41-3 63-29 60-74-43 2-92-5-92 41" id="M"/><path fill="#fff" d="M114-163C36-179 61-72 57 0H25l-1-190h30c1 12-1 29 2 39 6-27 23-49 58-41v29" id="N"/><path fill="#fff" d="M59-47c-2 24 18 29 38 22v24C64 9 27 4 27-40v-127H5v-23h24l9-43h21v43h35v23H59v120" id="O"/><path fill="#fff" d="M106-169C34-169 62-67 57 0H25v-261h32l-1 103c12-21 28-36 61-36 89 0 53 116 60 194h-32v-121c2-32-8-49-39-48" id="P"/><path fill="#fff" d="M100-194c62-1 85 37 85 99 1 63-27 99-86 99S16-35 15-95c0-66 28-99 85-99zM99-20c44 1 53-31 53-75 0-43-8-75-51-75s-53 32-53 75 10 74 51 75" id="Q"/><path fill="#fff" d="M117-194c89-4 53 116 60 194h-32v-121c0-31-8-49-39-48C34-167 62-67 57 0H25l-1-190h30c1 10-1 24 2 32 11-22 29-35 61-36" id="R"/><g id="e"><use transform="matrix(0.13580246913580238,0,0,0.13580246913580238,0,0)" xlink:href="#L"/><use transform="matrix(0.13580246913580238,0,0,0.13580246913580238,40.60493827160491,0)" xlink:href="#M"/><use transform="matrix(0.13580246913580238,0,0,0.13580246913580238,67.76543209876539,0)" xlink:href="#N"/><use transform="matrix(0.13580246913580238,0,0,0.13580246913580238,83.92592592592587,0)" xlink:href="#M"/><use transform="matrix(0.13580246913580238,0,0,0.13580246913580238,111.08641975308635,0)" xlink:href="#O"/><use transform="matrix(0.13580246913580238,0,0,0.13580246913580238,124.66666666666659,0)" xlink:href="#P"/><use transform="matrix(0.13580246913580238,0,0,0.13580246913580238,151.82716049382705,0)" xlink:href="#Q"/><use transform="matrix(0.13580246913580238,0,0,0.13580246913580238,178.98765432098753,0)" xlink:href="#R"/></g><path fill="#3a414a" d="M240 0l2-218c-23 76-54 145-80 218h-23L58-218 59 0H30v-248h44l77 211c21-75 51-140 76-211h43V0h-30" id="S"/><path fill="#3a414a" d="M106-169C34-169 62-67 57 0H25v-261h32l-1 103c12-21 28-36 61-36 89 0 53 116 60 194h-32v-121c2-32-8-49-39-48" id="T"/><path fill="#3a414a" d="M100-194c62-1 85 37 85 99 1 63-27 99-86 99S16-35 15-95c0-66 28-99 85-99zM99-20c44 1 53-31 53-75 0-43-8-75-51-75s-53 32-53 75 10 74 51 75" id="U"/><path fill="#3a414a" d="M101-234c-31-9-42 10-38 44h38v23H63V0H32v-167H5v-23h27c-7-52 17-82 69-68v24" id="V"/><path fill="#3a414a" d="M24-231v-30h32v30H24zM24 0v-190h32V0H24" id="W"/><g id="f"><use transform="matrix(0.06172839506172839,0,0,0.06172839506172839,0,0)" xlink:href="#S"/><use transform="matrix(0.06172839506172839,0,0,0.06172839506172839,18.456790123456788,0)" xlink:href="#J"/><use transform="matrix(0.06172839506172839,0,0,0.06172839506172839,30.80246913580247,0)" xlink:href="#H"/><use transform="matrix(0.06172839506172839,0,0,0.06172839506172839,38.148148148148145,0)" xlink:href="#J"/><use transform="matrix(0.06172839506172839,0,0,0.06172839506172839,50.49382716049382,0)" xlink:href="#G"/><use transform="matrix(0.06172839506172839,0,0,0.06172839506172839,56.666666666666664,0)" xlink:href="#T"/><use transform="matrix(0.06172839506172839,0,0,0.06172839506172839,69.01234567901234,0)" xlink:href="#U"/><use transform="matrix(0.06172839506172839,0,0,0.06172839506172839,81.35802469135803,0)" xlink:href="#E"/><use transform="matrix(0.06172839506172839,0,0,0.06172839506172839,93.70370370370371,0)" xlink:href="#V"/><use transform="matrix(0.06172839506172839,0,0,0.06172839506172839,99.87654320987654,0)" xlink:href="#W"/><use transform="matrix(0.06172839506172839,0,0,0.06172839506172839,104.75308641975309,0)" xlink:href="#K"/><use transform="matrix(0.06172839506172839,0,0,0.06172839506172839,109.62962962962963,0)" xlink:href="#w"/></g><path fill="#3a414a" d="M108 0H70L1-190h34L89-25l56-165h34" id="X"/><path fill="#3a414a" d="M96-169c-40 0-48 33-48 73s9 75 48 75c24 0 41-14 43-38l32 2c-6 37-31 61-74 61-59 0-76-41-82-99-10-93 101-131 147-64 4 7 5 14 7 22l-32 3c-4-21-16-35-41-35" id="Y"/><g id="g"><use transform="matrix(0.0987654320987654,0,0,0.0987654320987654,0,0)" xlink:href="#v"/><use transform="matrix(0.0987654320987654,0,0,0.0987654320987654,25.58024691358024,0)" xlink:href="#w"/><use transform="matrix(0.0987654320987654,0,0,0.0987654320987654,45.333333333333314,0)" xlink:href="#X"/><use transform="matrix(0.0987654320987654,0,0,0.0987654320987654,63.11111111111109,0)" xlink:href="#W"/><use transform="matrix(0.0987654320987654,0,0,0.0987654320987654,70.91358024691355,0)" xlink:href="#Y"/><use transform="matrix(0.0987654320987654,0,0,0.0987654320987654,88.69135802469133,0)" xlink:href="#w"/><use transform="matrix(0.0987654320987654,0,0,0.0987654320987654,108.44444444444441,0)" xlink:href="#F"/></g><path fill="#3a414a" d="M30 0v-248h187v28H63v79h144v27H63v87h162V0H30" id="Z"/><g id="h"><use transform="matrix(0.06172839506172839,0,0,0.06172839506172839,0,0)" xlink:href="#Z"/><use transform="matrix(0.06172839506172839,0,0,0.06172839506172839,14.814814814814813,0)" xlink:href="#I"/><use transform="matrix(0.06172839506172839,0,0,0.06172839506172839,33.2716049382716,0)" xlink:href="#y"/><use transform="matrix(0.06172839506172839,0,0,0.06172839506172839,45.61728395061728,0)" xlink:href="#K"/><use transform="matrix(0.06172839506172839,0,0,0.06172839506172839,50.49382716049382,0)" xlink:href="#J"/><use transform="matrix(0.06172839506172839,0,0,0.06172839506172839,62.8395061728395,0)" xlink:href="#G"/><use transform="matrix(0.06172839506172839,0,0,0.06172839506172839,69.01234567901234,0)" xlink:href="#U"/><use transform="matrix(0.06172839506172839,0,0,0.06172839506172839,81.35802469135803,0)" xlink:href="#H"/></g><path fill="#3a414a" d="M0 4l72-265h28L28 4H0" id="aa"/><use transform="matrix(0.06172839506172839,0,0,0.06172839506172839,0,0)" xlink:href="#aa" id="i"/><path fill="#3a414a" d="M233-177c-1 41-23 64-60 70L243 0h-38l-65-103H63V0H30v-248c88 3 205-21 203 71zM63-129c60-2 137 13 137-47 0-61-80-42-137-45v92" id="ab"/><g id="j"><use transform="matrix(0.06172839506172839,0,0,0.06172839506172839,0,0)" xlink:href="#ab"/><use transform="matrix(0.06172839506172839,0,0,0.06172839506172839,15.987654320987653,0)" xlink:href="#w"/><use transform="matrix(0.06172839506172839,0,0,0.06172839506172839,28.333333333333332,0)" xlink:href="#K"/><use transform="matrix(0.06172839506172839,0,0,0.06172839506172839,33.20987654320987,0)" xlink:href="#J"/><use transform="matrix(0.06172839506172839,0,0,0.06172839506172839,45.55555555555555,0)" xlink:href="#K"/></g><g id="k"><use transform="matrix(0.06172839506172839,0,0,0.06172839506172839,0,0)" xlink:href="#v"/><use transform="matrix(0.06172839506172839,0,0,0.06172839506172839,15.987654320987653,0)" xlink:href="#w"/><use transform="matrix(0.06172839506172839,0,0,0.06172839506172839,28.333333333333332,0)" xlink:href="#X"/><use transform="matrix(0.06172839506172839,0,0,0.06172839506172839,39.44444444444444,0)" xlink:href="#W"/><use transform="matrix(0.06172839506172839,0,0,0.06172839506172839,44.32098765432099,0)" xlink:href="#Y"/><use transform="matrix(0.06172839506172839,0,0,0.06172839506172839,55.4320987654321,0)" xlink:href="#w"/></g><path fill="#3a414a" d="M27 0v-27h64v-190l-56 39v-29l58-41h29v221h61V0H27" id="ac"/><use transform="matrix(0.06172839506172839,0,0,0.06172839506172839,0,0)" xlink:href="#ac" id="l"/><path fill="#3a414a" d="M101-251c82-7 93 87 43 132L82-64C71-53 59-42 53-27h129V0H18c2-99 128-94 128-182 0-28-16-43-45-43s-46 15-49 41l-32-3c6-41 34-60 81-64" id="ad"/><use transform="matrix(0.06172839506172839,0,0,0.06172839506172839,0,0)" xlink:href="#ad" id="m"/><path fill="#3a414a" d="M126-127c33 6 58 20 58 59 0 88-139 92-164 29-3-8-5-16-6-25l32-3c6 27 21 44 54 44 32 0 52-15 52-46 0-38-36-46-79-43v-28c39 1 72-4 72-42 0-27-17-43-46-43-28 0-47 15-49 41l-32-3c6-42 35-63 81-64 48-1 79 21 79 65 0 36-21 52-52 59" id="ae"/><use transform="matrix(0.06172839506172839,0,0,0.06172839506172839,0,0)" xlink:href="#ae" id="n"/><path fill="#3a414a" d="M190 0L58-211 59 0H30v-248h39L202-35l-2-213h31V0h-41" id="af"/><use transform="matrix(0.06172839506172839,0,0,0.06172839506172839,0,0)" xlink:href="#af" id="o"/><g id="p"><use transform="matrix(0.08641975308641973,0,0,0.08641975308641973,0,0)" xlink:href="#A"/><use transform="matrix(0.08641975308641973,0,0,0.08641975308641973,20.740740740740737,0)" xlink:href="#K"/><use transform="matrix(0.08641975308641973,0,0,0.08641975308641973,27.567901234567895,0)" xlink:href="#K"/><use transform="matrix(0.08641975308641973,0,0,0.08641975308641973,34.395061728395056,0)" xlink:href="#y"/><use transform="matrix(0.08641975308641973,0,0,0.08641975308641973,51.679012345679,0)" xlink:href="#H"/><use transform="matrix(0.08641975308641973,0,0,0.08641975308641973,61.96296296296295,0)" xlink:href="#w"/></g><path fill="#3a414a" d="M115-194c55 1 70 41 70 98S169 2 115 4C84 4 66-9 55-30l1 105H24l-1-265h31l2 30c10-21 28-34 59-34zm-8 174c40 0 45-34 45-75s-6-73-45-74c-42 0-51 32-51 76 0 43 10 73 51 73" id="ag"/><g id="q"><use transform="matrix(0.08641975308641973,0,0,0.08641975308641973,0,0)" xlink:href="#ab"/><use transform="matrix(0.08641975308641973,0,0,0.08641975308641973,22.38271604938271,0)" xlink:href="#w"/><use transform="matrix(0.08641975308641973,0,0,0.08641975308641973,39.66666666666666,0)" xlink:href="#ag"/><use transform="matrix(0.08641975308641973,0,0,0.08641975308641973,56.950617283950606,0)" xlink:href="#U"/><use transform="matrix(0.08641975308641973,0,0,0.08641975308641973,74.23456790123456,0)" xlink:href="#H"/><use transform="matrix(0.08641975308641973,0,0,0.08641975308641973,84.5185185185185,0)" xlink:href="#G"/><use transform="matrix(0.08641975308641973,0,0,0.08641975308641973,93.16049382716048,0)" xlink:href="#F"/></g><path fill="#3a414a" d="M127-220V0H93v-220H8v-28h204v28h-85" id="ah"/><g id="r"><use transform="matrix(0.08641975308641973,0,0,0.08641975308641973,0,0)" xlink:href="#ah"/><use transform="matrix(0.08641975308641973,0,0,0.08641975308641973,15.46913580246913,0)" xlink:href="#w"/><use transform="matrix(0.08641975308641973,0,0,0.08641975308641973,32.753086419753075,0)" xlink:href="#F"/><use transform="matrix(0.08641975308641973,0,0,0.08641975308641973,48.308641975308625,0)" xlink:href="#G"/></g><path fill="#3a414a" d="M212-179c-10-28-35-45-73-45-59 0-87 40-87 99 0 60 29 101 89 101 43 0 62-24 78-52l27 14C228-24 195 4 139 4 59 4 22-46 18-125c-6-104 99-153 187-111 19 9 31 26 39 46" id="ai"/><g id="s"><use transform="matrix(0.08641975308641973,0,0,0.08641975308641973,0,0)" xlink:href="#ai"/><use transform="matrix(0.08641975308641973,0,0,0.08641975308641973,22.38271604938271,0)" xlink:href="#U"/><use transform="matrix(0.08641975308641973,0,0,0.08641975308641973,39.66666666666666,0)" xlink:href="#X"/><use transform="matrix(0.08641975308641973,0,0,0.08641975308641973,55.22222222222221,0)" xlink:href="#w"/><use transform="matrix(0.08641975308641973,0,0,0.08641975308641973,72.50617283950615,0)" xlink:href="#H"/><use transform="matrix(0.08641975308641973,0,0,0.08641975308641973,82.7901234567901,0)" xlink:href="#J"/><use transform="matrix(0.08641975308641973,0,0,0.08641975308641973,100.07407407407405,0)" xlink:href="#z"/><use transform="matrix(0.08641975308641973,0,0,0.08641975308641973,117.358024691358,0)" xlink:href="#w"/></g><path fill="#3a414a" d="M141 0L90-78 38 0H4l68-98-65-92h35l48 74 47-74h35l-64 92 68 98h-35" id="aj"/><g id="t"><use transform="matrix(0.08641975308641973,0,0,0.08641975308641973,0,0)" xlink:href="#Z"/><use transform="matrix(0.08641975308641973,0,0,0.08641975308641973,20.740740740740737,0)" xlink:href="#aj"/><use transform="matrix(0.08641975308641973,0,0,0.08641975308641973,36.29629629629629,0)" xlink:href="#w"/><use transform="matrix(0.08641975308641973,0,0,0.08641975308641973,53.58024691358023,0)" xlink:href="#Y"/><use transform="matrix(0.08641975308641973,0,0,0.08641975308641973,69.1358024691358,0)" xlink:href="#y"/><use transform="matrix(0.08641975308641973,0,0,0.08641975308641973,86.41975308641975,0)" xlink:href="#G"/><use transform="matrix(0.08641975308641973,0,0,0.08641975308641973,95.06172839506172,0)" xlink:href="#W"/><use transform="matrix(0.08641975308641973,0,0,0.08641975308641973,101.88888888888889,0)" xlink:href="#U"/><use transform="matrix(0.08641975308641973,0,0,0.08641975308641973,119.17283950617283,0)" xlink:href="#E"/></g><g id="u"><use transform="matrix(0.08641975308641973,0,0,0.08641975308641973,0,0)" xlink:href="#F"/><use transform="matrix(0.08641975308641973,0,0,0.08641975308641973,15.555555555555552,0)" xlink:href="#G"/><use transform="matrix(0.08641975308641973,0,0,0.08641975308641973,24.197530864197525,0)" xlink:href="#J"/><use transform="matrix(0.08641975308641973,0,0,0.08641975308641973,41.48148148148147,0)" xlink:href="#G"/><use transform="matrix(0.08641975308641973,0,0,0.08641975308641973,50.12345679012345,0)" xlink:href="#W"/><use transform="matrix(0.08641975308641973,0,0,0.08641975308641973,56.95061728395059,0)" xlink:href="#F"/><use transform="matrix(0.08641975308641973,0,0,0.08641975308641973,72.50617283950615,0)" xlink:href="#G"/><use transform="matrix(0.08641975308641973,0,0,0.08641975308641973,81.14814814814812,0)" xlink:href="#W"/><use transform="matrix(0.08641975308641973,0,0,0.08641975308641973,87.97530864197529,0)" xlink:href="#Y"/></g></defs></g></svg>