<svg xmlns="http://www.w3.org/2000/svg" xmlns:xlink="http://www.w3.org/1999/xlink" xmlns:lucid="lucid" width="1260" height="702"><g transform="translate(621 161)" lucid:page-tab-id="0_0"><path d="M-1000-500h2000v1500h-2000z" fill="#fff"/><path d="M-242 203.88a6 6 0 0 1 6-6h848a6 6 0 0 1 6 6v288a6 6 0 0 1-6 6h-848a6 6 0 0 1-6-6zM-600-34a6 6 0 0 1 6-6h268a6 6 0 0 1 6 6v368a6 6 0 0 1-6 6h-268a6 6 0 0 1-6-6z" stroke="#282c33" stroke-width="2" fill="#fff"/><path d="M-540 6a6 6 0 0 1 6-6h148a6 6 0 0 1 6 6v114c-26.72-20.04-43.36-20.04-53.44-20.04-16 0-37.28 20.04-53.28 20.04-9.92 0-26.72 0-53.28-20.04z" stroke="#282c33" stroke-width="2" fill="#e3fae3"/><use xlink:href="#a" transform="matrix(1,0,0,1,-535,5) translate(17.006172839506178 48.71527777777778)"/><use xlink:href="#b" transform="matrix(1,0,0,1,-535,5) translate(88.54938271604938 48.71527777777778)"/><path d="M-540 186a6 6 0 0 1 6-6h148a6 6 0 0 1 6 6v114c-26.72-20.04-43.36-20.04-53.44-20.04-16 0-37.28 20.04-53.28 20.04-9.92 0-26.72 0-53.28-20.04z" stroke="#282c33" stroke-width="2" fill="#e3fae3"/><use xlink:href="#c" transform="matrix(1,0,0,1,-535,185) translate(13.981481481481481 37.46527777777778)"/><use xlink:href="#d" transform="matrix(1,0,0,1,-535,185) translate(17.006172839506178 64.13194444444446)"/><use xlink:href="#b" transform="matrix(1,0,0,1,-535,185) translate(88.54938271604938 64.13194444444446)"/><path d="M-201 223.88a6 6 0 0 1 6-6H33a6 6 0 0 1 6 6v108a6 6 0 0 1-6 6h-228a6 6 0 0 1-6-6z" stroke="#fff" stroke-width="2" fill="#635dff"/><use xlink:href="#e" transform="matrix(1,0,0,1,-188.99994736842143,229.8800386169013) translate(4.925925925925995 57.111111111111086)"/><path d="M-540 406a6 6 0 0 1 6-6h148a6 6 0 0 1 6 6v114c-26.72-20.04-43.36-20.04-53.44-20.04-16 0-37.28 20.04-53.28 20.04-9.92 0-26.72 0-53.28-20.04z" stroke="#282c33" stroke-width="2" fill="#ffd9d9"/><use xlink:href="#f" transform="matrix(1,0,0,1,-535,405) translate(14.012345679012341 48.71527777777778)"/><path d="M-374.5 60.2h78a6 6 0 0 1 6 6V271.9a6 6 0 0 0 6 6h49.17" stroke="#3a414a" stroke-width="9" fill="none"/><path d="M-374.4 64.7h-4.6v-8.96h4.62z" stroke="#3a414a" stroke-width=".05" fill="#3a414a"/><path d="M-216.56 277.88l-14.27 4.63v-9.25z" stroke="#3a414a" stroke-width="9" fill="#3a414a"/><path d="M-374.5 240.2h78a6 6 0 0 1 6 6v25.73a6 6 0 0 0 6 6h49.17" stroke="#3a414a" stroke-width="9" fill="none"/><path d="M-374.4 244.7h-4.6v-8.96h4.62z" stroke="#3a414a" stroke-width=".05" fill="#3a414a"/><path d="M-216.56 277.93l-14.27 4.63v-9.27z" stroke="#3a414a" stroke-width="9" fill="#3a414a"/><path d="M-374.5 460h78a6 6 0 0 0 6-6V283.88a6 6 0 0 1 6-6h49.17" stroke="#3a414a" stroke-width="9" fill="none"/><path d="M-374.4 464.48h-4.6v-8.96h4.62z" stroke="#3a414a" stroke-width=".05" fill="#3a414a"/><path d="M-216.56 277.88l-14.27 4.63v-9.25z" stroke="#3a414a" stroke-width="9" fill="#3a414a"/><path d="M139 186.2a6 6 0 0 1 6-6h268a6 6 0 0 1 6 6v83.35a6 6 0 0 1-6 6H145a6 6 0 0 1-6-6z" stroke="#000" stroke-opacity="0" stroke-width="2" fill="#fff" fill-opacity="0"/><use xlink:href="#g" transform="matrix(1,0,0,1,144.00005263157857,185.21337195023463) translate(24.530864197530903 49.944444444444436)"/><use xlink:href="#h" transform="matrix(1,0,0,1,144.00005263157857,185.21337195023463) translate(127.24691358024691 49.944444444444436)"/><use xlink:href="#i" transform="matrix(1,0,0,1,144.00005263157857,185.21337195023463) translate(213.96296296296293 49.944444444444436)"/><path d="M199 323.88a6 6 0 0 1 6-6h148a6 6 0 0 1 6 6v168a6 6 0 0 1-6 6H205a6 6 0 0 1-6-6z" stroke="#282c33" stroke-width="2" fill="#ffdda6"/><use xlink:href="#j" transform="matrix(1,0,0,1,211.00005263157857,329.8800386169013) translate(17.47530864197531 56.77777777777778)"/><use xlink:href="#k" transform="matrix(1,0,0,1,211.00005263157857,329.8800386169013) translate(112.35185185185185 56.77777777777778)"/><use xlink:href="#l" transform="matrix(1,0,0,1,211.00005263157857,329.8800386169013) translate(5.808641975308639 83.44444444444446)"/><use xlink:href="#m" transform="matrix(1,0,0,1,211.00005263157857,329.8800386169013) translate(62.413580246913575 83.44444444444446)"/><use xlink:href="#n" transform="matrix(1,0,0,1,211.00005263157857,329.8800386169013) translate(61.82716049382716 110.11111111111111)"/><path d="M439 323.88a6 6 0 0 1 6-6h148a6 6 0 0 1 6 6v168a6 6 0 0 1-6 6H445a6 6 0 0 1-6-6z" stroke="#282c33" stroke-width="2" fill="#ffdda6"/><use xlink:href="#j" transform="matrix(1,0,0,1,451.00005263157857,329.8800386169013) translate(17.47530864197531 56.77777777777778)"/><use xlink:href="#k" transform="matrix(1,0,0,1,451.00005263157857,329.8800386169013) translate(112.35185185185185 56.77777777777778)"/><use xlink:href="#l" transform="matrix(1,0,0,1,451.00005263157857,329.8800386169013) translate(5.808641975308639 83.44444444444446)"/><use xlink:href="#m" transform="matrix(1,0,0,1,451.00005263157857,329.8800386169013) translate(62.413580246913575 83.44444444444446)"/><use xlink:href="#o" transform="matrix(1,0,0,1,451.00005263157857,329.8800386169013) translate(61.82716049382716 110.11111111111111)"/><path d="M45 277.88h230.45a3.55 3.55 0 0 1 3.55 3.55" stroke="#3a414a" stroke-width="10" fill="none"/><path d="M45.13 282.86H40v-9.96h5.13z" stroke="#3a414a" stroke-width=".05" fill="#3a414a"/><path d="M279 300.7l-4.63-14.27h9.26z" stroke="#3a414a" stroke-width="10" fill="#3a414a"/><path d="M44.5 277.88h468.83a5.67 5.67 0 0 1 5.67 5.67" stroke="#3a414a" stroke-width="9" fill="none"/><path d="M44.62 282.36H40v-8.96h4.62z" stroke="#3a414a" stroke-width=".05" fill="#3a414a"/><path d="M519 302.32l-4.63-14.27h9.26z" stroke="#3a414a" stroke-width="9" fill="#3a414a"/><path d="M-242-116.33a6 6 0 0 1 6-6h848a6 6 0 0 1 6 6v288a6 6 0 0 1-6 6h-848a6 6 0 0 1-6-6z" stroke="#282c33" stroke-width="2" fill="#fff"/><path d="M-202-96.33a6 6 0 0 1 6-6H32a6 6 0 0 1 6 6v108a6 6 0 0 1-6 6h-228a6 6 0 0 1-6-6z" stroke="#fff" stroke-width="2" fill="#635dff"/><use xlink:href="#e" transform="matrix(1,0,0,1,-189.99989473684286,-90.33333333333336) translate(4.925925925925995 57.111111111111086)"/><path d="M138-134a6 6 0 0 1 6-6h268a6 6 0 0 1 6 6v83.33a6 6 0 0 1-6 6H144a6 6 0 0 1-6-6z" stroke="#000" stroke-opacity="0" stroke-width="2" fill="#fff" fill-opacity="0"/><use xlink:href="#g" transform="matrix(1,0,0,1,143.00010526315714,-135) translate(24.530864197530903 49.944444444444436)"/><use xlink:href="#h" transform="matrix(1,0,0,1,143.00010526315714,-135) translate(127.24691358024691 49.944444444444436)"/><use xlink:href="#p" transform="matrix(1,0,0,1,143.00010526315714,-135) translate(213.96296296296293 49.944444444444436)"/><path d="M198 3.67a6 6 0 0 1 6-6h148a6 6 0 0 1 6 6v168a6 6 0 0 1-6 6H204a6 6 0 0 1-6-6z" stroke="#282c33" stroke-width="2" fill="#ffdda6"/><g><use xlink:href="#j" transform="matrix(1,0,0,1,210.00010526315714,9.666666666666629) translate(17.47530864197531 56.77777777777778)"/><use xlink:href="#k" transform="matrix(1,0,0,1,210.00010526315714,9.666666666666629) translate(112.35185185185185 56.77777777777778)"/><use xlink:href="#l" transform="matrix(1,0,0,1,210.00010526315714,9.666666666666629) translate(5.808641975308639 83.44444444444446)"/><use xlink:href="#m" transform="matrix(1,0,0,1,210.00010526315714,9.666666666666629) translate(62.413580246913575 83.44444444444446)"/><use xlink:href="#n" transform="matrix(1,0,0,1,210.00010526315714,9.666666666666629) translate(61.82716049382716 110.11111111111111)"/></g><path d="M438 3.67a6 6 0 0 1 6-6h148a6 6 0 0 1 6 6v168a6 6 0 0 1-6 6H444a6 6 0 0 1-6-6z" stroke="#282c33" stroke-width="2" fill="#ffdda6"/><g><use xlink:href="#j" transform="matrix(1,0,0,1,450.00010526315714,9.666666666666629) translate(17.47530864197531 56.77777777777778)"/><use xlink:href="#k" transform="matrix(1,0,0,1,450.00010526315714,9.666666666666629) translate(112.35185185185185 56.77777777777778)"/><use xlink:href="#l" transform="matrix(1,0,0,1,450.00010526315714,9.666666666666629) translate(5.808641975308639 83.44444444444446)"/><use xlink:href="#m" transform="matrix(1,0,0,1,450.00010526315714,9.666666666666629) translate(62.413580246913575 83.44444444444446)"/><use xlink:href="#o" transform="matrix(1,0,0,1,450.00010526315714,9.666666666666629) translate(61.82716049382716 110.11111111111111)"/></g><path d="M44-42.33h230.45a3.55 3.55 0 0 1 3.55 3.55" stroke="#3a414a" stroke-width="10" fill="none"/><path d="M44.13-37.36H39v-9.95h5.13z" stroke="#3a414a" stroke-width=".05" fill="#3a414a"/><path d="M278-19.5l-4.63-14.28h9.26z" stroke="#3a414a" stroke-width="10" fill="#3a414a"/><path d="M43.5-42.33h468.83a5.67 5.67 0 0 1 5.67 5.67" stroke="#3a414a" stroke-width="9" fill="none"/><path d="M43.62-37.86H39v-8.95h4.62z" stroke="#3a414a" stroke-width=".05" fill="#3a414a"/><path d="M518-17.9l-4.63-14.26h9.26z" stroke="#3a414a" stroke-width="9" fill="#3a414a"/><path d="M-374 240.2h77a6 6 0 0 0 6-6V-36.32a6 6 0 0 1 6-6h46.55" stroke="#3a414a" stroke-width="10" fill="none"/><path d="M-373.87 245.2H-379v-9.96h5.13z" stroke="#3a414a" stroke-width=".05" fill="#3a414a"/><path d="M-219.18-42.33l-14.27 4.63v-9.27z" stroke="#3a414a" stroke-width="10" fill="#3a414a"/><defs><path fill="#3a414a" d="M30-248c118-7 216 8 213 122C240-48 200 0 122 0H30v-248zM63-27c89 8 146-16 146-99s-60-101-146-95v194" id="q"/><path fill="#3a414a" d="M100-194c63 0 86 42 84 106H49c0 40 14 67 53 68 26 1 43-12 49-29l28 8c-11 28-37 45-77 45C44 4 14-33 15-96c1-61 26-98 85-98zm52 81c6-60-76-77-97-28-3 7-6 17-6 28h103" id="r"/><path fill="#3a414a" d="M115-194c53 0 69 39 70 98 0 66-23 100-70 100C84 3 66-7 56-30L54 0H23l1-261h32v101c10-23 28-34 59-34zm-8 174c40 0 45-34 45-75 0-40-5-75-45-74-42 0-51 32-51 76 0 43 10 73 51 73" id="s"/><path fill="#3a414a" d="M84 4C-5 8 30-112 23-190h32v120c0 31 7 50 39 49 72-2 45-101 50-169h31l1 190h-30c-1-10 1-25-2-33-11 22-28 36-60 37" id="t"/><path fill="#3a414a" d="M177-190C167-65 218 103 67 71c-23-6-38-20-44-43l32-5c15 47 100 32 89-28v-30C133-14 115 1 83 1 29 1 15-40 15-95c0-56 16-97 71-98 29-1 48 16 59 35 1-10 0-23 2-32h30zM94-22c36 0 50-32 50-73 0-42-14-75-50-75-39 0-46 34-46 75s6 73 46 73" id="u"/><g id="a"><use transform="matrix(0.06172839506172839,0,0,0.06172839506172839,0,0)" xlink:href="#q"/><use transform="matrix(0.06172839506172839,0,0,0.06172839506172839,15.987654320987653,0)" xlink:href="#r"/><use transform="matrix(0.06172839506172839,0,0,0.06172839506172839,28.333333333333332,0)" xlink:href="#s"/><use transform="matrix(0.06172839506172839,0,0,0.06172839506172839,40.67901234567901,0)" xlink:href="#t"/><use transform="matrix(0.06172839506172839,0,0,0.06172839506172839,53.02469135802469,0)" xlink:href="#u"/></g><path fill="#3a414a" d="M205 0l-28-72H64L36 0H1l101-248h38L239 0h-34zm-38-99l-47-123c-12 45-31 82-46 123h93" id="v"/><path fill="#3a414a" d="M30-248c87 1 191-15 191 75 0 78-77 80-158 76V0H30v-248zm33 125c57 0 124 11 124-50 0-59-68-47-124-48v98" id="w"/><path fill="#3a414a" d="M194 0L95-120 63-95V0H30v-248h33v124l119-124h40L117-140 236 0h-42" id="x"/><g id="b"><use transform="matrix(0.06172839506172839,0,0,0.06172839506172839,0,0)" xlink:href="#v"/><use transform="matrix(0.06172839506172839,0,0,0.06172839506172839,14.814814814814813,0)" xlink:href="#w"/><use transform="matrix(0.06172839506172839,0,0,0.06172839506172839,29.629629629629626,0)" xlink:href="#x"/></g><path fill="#3a414a" d="M33 0v-248h34V0H33" id="y"/><path fill="#3a414a" d="M117-194c89-4 53 116 60 194h-32v-121c0-31-8-49-39-48C34-167 62-67 57 0H25l-1-190h30c1 10-1 24 2 32 11-22 29-35 61-36" id="z"/><path fill="#3a414a" d="M135-143c-3-34-86-38-87 0 15 53 115 12 119 90S17 21 10-45l28-5c4 36 97 45 98 0-10-56-113-15-118-90-4-57 82-63 122-42 12 7 21 19 24 35" id="A"/><path fill="#3a414a" d="M59-47c-2 24 18 29 38 22v24C64 9 27 4 27-40v-127H5v-23h24l9-43h21v43h35v23H59v120" id="B"/><path fill="#3a414a" d="M114-163C36-179 61-72 57 0H25l-1-190h30c1 12-1 29 2 39 6-27 23-49 58-41v29" id="C"/><path fill="#3a414a" d="M210-169c-67 3-38 105-44 169h-31v-121c0-29-5-50-35-48C34-165 62-65 56 0H25l-1-190h30c1 10-1 24 2 32 10-44 99-50 107 0 11-21 27-35 58-36 85-2 47 119 55 194h-31v-121c0-29-5-49-35-48" id="D"/><path fill="#3a414a" d="M141-36C126-15 110 5 73 4 37 3 15-17 15-53c-1-64 63-63 125-63 3-35-9-54-41-54-24 1-41 7-42 31l-33-3c5-37 33-52 76-52 45 0 72 20 72 64v82c-1 20 7 32 28 27v20c-31 9-61-2-59-35zM48-53c0 20 12 33 32 33 41-3 63-29 60-74-43 2-92-5-92 41" id="E"/><path fill="#3a414a" d="M24 0v-261h32V0H24" id="F"/><g id="c"><use transform="matrix(0.06172839506172839,0,0,0.06172839506172839,0,0)" xlink:href="#y"/><use transform="matrix(0.06172839506172839,0,0,0.06172839506172839,6.172839506172839,0)" xlink:href="#z"/><use transform="matrix(0.06172839506172839,0,0,0.06172839506172839,18.51851851851852,0)" xlink:href="#A"/><use transform="matrix(0.06172839506172839,0,0,0.06172839506172839,29.62962962962963,0)" xlink:href="#B"/><use transform="matrix(0.06172839506172839,0,0,0.06172839506172839,35.80246913580247,0)" xlink:href="#C"/><use transform="matrix(0.06172839506172839,0,0,0.06172839506172839,43.148148148148145,0)" xlink:href="#t"/><use transform="matrix(0.06172839506172839,0,0,0.06172839506172839,55.49382716049382,0)" xlink:href="#D"/><use transform="matrix(0.06172839506172839,0,0,0.06172839506172839,73.9506172839506,0)" xlink:href="#r"/><use transform="matrix(0.06172839506172839,0,0,0.06172839506172839,86.29629629629629,0)" xlink:href="#z"/><use transform="matrix(0.06172839506172839,0,0,0.06172839506172839,98.64197530864197,0)" xlink:href="#B"/><use transform="matrix(0.06172839506172839,0,0,0.06172839506172839,104.81481481481481,0)" xlink:href="#E"/><use transform="matrix(0.06172839506172839,0,0,0.06172839506172839,117.1604938271605,0)" xlink:href="#F"/></g><g id="d"><use transform="matrix(0.06172839506172839,0,0,0.06172839506172839,0,0)" xlink:href="#q"/><use transform="matrix(0.06172839506172839,0,0,0.06172839506172839,15.987654320987653,0)" xlink:href="#r"/><use transform="matrix(0.06172839506172839,0,0,0.06172839506172839,28.333333333333332,0)" xlink:href="#s"/><use transform="matrix(0.06172839506172839,0,0,0.06172839506172839,40.67901234567901,0)" xlink:href="#t"/><use transform="matrix(0.06172839506172839,0,0,0.06172839506172839,53.02469135802469,0)" xlink:href="#u"/></g><path fill="#fff" d="M240 0l2-218c-23 76-54 145-80 218h-23L58-218 59 0H30v-248h44l77 211c21-75 51-140 76-211h43V0h-30" id="G"/><path fill="#fff" d="M141-36C126-15 110 5 73 4 37 3 15-17 15-53c-1-64 63-63 125-63 3-35-9-54-41-54-24 1-41 7-42 31l-33-3c5-37 33-52 76-52 45 0 72 20 72 64v82c-1 20 7 32 28 27v20c-31 9-61-2-59-35zM48-53c0 20 12 33 32 33 41-3 63-29 60-74-43 2-92-5-92 41" id="H"/><path fill="#fff" d="M114-163C36-179 61-72 57 0H25l-1-190h30c1 12-1 29 2 39 6-27 23-49 58-41v29" id="I"/><path fill="#fff" d="M59-47c-2 24 18 29 38 22v24C64 9 27 4 27-40v-127H5v-23h24l9-43h21v43h35v23H59v120" id="J"/><path fill="#fff" d="M106-169C34-169 62-67 57 0H25v-261h32l-1 103c12-21 28-36 61-36 89 0 53 116 60 194h-32v-121c2-32-8-49-39-48" id="K"/><path fill="#fff" d="M100-194c62-1 85 37 85 99 1 63-27 99-86 99S16-35 15-95c0-66 28-99 85-99zM99-20c44 1 53-31 53-75 0-43-8-75-51-75s-53 32-53 75 10 74 51 75" id="L"/><path fill="#fff" d="M117-194c89-4 53 116 60 194h-32v-121c0-31-8-49-39-48C34-167 62-67 57 0H25l-1-190h30c1 10-1 24 2 32 11-22 29-35 61-36" id="M"/><g id="e"><use transform="matrix(0.13580246913580238,0,0,0.13580246913580238,0,0)" xlink:href="#G"/><use transform="matrix(0.13580246913580238,0,0,0.13580246913580238,40.60493827160491,0)" xlink:href="#H"/><use transform="matrix(0.13580246913580238,0,0,0.13580246913580238,67.76543209876539,0)" xlink:href="#I"/><use transform="matrix(0.13580246913580238,0,0,0.13580246913580238,83.92592592592587,0)" xlink:href="#H"/><use transform="matrix(0.13580246913580238,0,0,0.13580246913580238,111.08641975308635,0)" xlink:href="#J"/><use transform="matrix(0.13580246913580238,0,0,0.13580246913580238,124.66666666666659,0)" xlink:href="#K"/><use transform="matrix(0.13580246913580238,0,0,0.13580246913580238,151.82716049382705,0)" xlink:href="#L"/><use transform="matrix(0.13580246913580238,0,0,0.13580246913580238,178.98765432098753,0)" xlink:href="#M"/></g><path fill="#3a414a" d="M240 0l2-218c-23 76-54 145-80 218h-23L58-218 59 0H30v-248h44l77 211c21-75 51-140 76-211h43V0h-30" id="N"/><path fill="#3a414a" d="M106-169C34-169 62-67 57 0H25v-261h32l-1 103c12-21 28-36 61-36 89 0 53 116 60 194h-32v-121c2-32-8-49-39-48" id="O"/><path fill="#3a414a" d="M100-194c62-1 85 37 85 99 1 63-27 99-86 99S16-35 15-95c0-66 28-99 85-99zM99-20c44 1 53-31 53-75 0-43-8-75-51-75s-53 32-53 75 10 74 51 75" id="P"/><path fill="#3a414a" d="M101-234c-31-9-42 10-38 44h38v23H63V0H32v-167H5v-23h27c-7-52 17-82 69-68v24" id="Q"/><path fill="#3a414a" d="M24-231v-30h32v30H24zM24 0v-190h32V0H24" id="R"/><g id="f"><use transform="matrix(0.06172839506172839,0,0,0.06172839506172839,0,0)" xlink:href="#N"/><use transform="matrix(0.06172839506172839,0,0,0.06172839506172839,18.456790123456788,0)" xlink:href="#E"/><use transform="matrix(0.06172839506172839,0,0,0.06172839506172839,30.80246913580247,0)" xlink:href="#C"/><use transform="matrix(0.06172839506172839,0,0,0.06172839506172839,38.148148148148145,0)" xlink:href="#E"/><use transform="matrix(0.06172839506172839,0,0,0.06172839506172839,50.49382716049382,0)" xlink:href="#B"/><use transform="matrix(0.06172839506172839,0,0,0.06172839506172839,56.666666666666664,0)" xlink:href="#O"/><use transform="matrix(0.06172839506172839,0,0,0.06172839506172839,69.01234567901234,0)" xlink:href="#P"/><use transform="matrix(0.06172839506172839,0,0,0.06172839506172839,81.35802469135803,0)" xlink:href="#z"/><use transform="matrix(0.06172839506172839,0,0,0.06172839506172839,93.70370370370371,0)" xlink:href="#Q"/><use transform="matrix(0.06172839506172839,0,0,0.06172839506172839,99.87654320987654,0)" xlink:href="#R"/><use transform="matrix(0.06172839506172839,0,0,0.06172839506172839,104.75308641975309,0)" xlink:href="#F"/><use transform="matrix(0.06172839506172839,0,0,0.06172839506172839,109.62962962962963,0)" xlink:href="#r"/></g><g id="g"><use transform="matrix(0.0987654320987654,0,0,0.0987654320987654,0,0)" xlink:href="#v"/><use transform="matrix(0.0987654320987654,0,0,0.0987654320987654,23.703703703703695,0)" xlink:href="#u"/><use transform="matrix(0.0987654320987654,0,0,0.0987654320987654,43.45679012345677,0)" xlink:href="#r"/><use transform="matrix(0.0987654320987654,0,0,0.0987654320987654,63.209876543209845,0)" xlink:href="#z"/><use transform="matrix(0.0987654320987654,0,0,0.0987654320987654,82.96296296296292,0)" xlink:href="#B"/></g><path fill="#3a414a" d="M87 75C49 33 22-17 22-94c0-76 28-126 65-167h31c-38 41-64 92-64 168S80 34 118 75H87" id="S"/><g id="h"><use transform="matrix(0.0987654320987654,0,0,0.0987654320987654,0,0)" xlink:href="#S"/><use transform="matrix(0.0987654320987654,0,0,0.0987654320987654,11.753086419753082,0)" xlink:href="#w"/><use transform="matrix(0.0987654320987654,0,0,0.0987654320987654,35.45679012345678,0)" xlink:href="#E"/><use transform="matrix(0.0987654320987654,0,0,0.0987654320987654,55.20987654320986,0)" xlink:href="#C"/><use transform="matrix(0.0987654320987654,0,0,0.0987654320987654,66.96296296296293,0)" xlink:href="#B"/></g><path fill="#3a414a" d="M101-251c82-7 93 87 43 132L82-64C71-53 59-42 53-27h129V0H18c2-99 128-94 128-182 0-28-16-43-45-43s-46 15-49 41l-32-3c6-41 34-60 81-64" id="T"/><path fill="#3a414a" d="M33-261c38 41 65 92 65 168S71 34 33 75H2C39 34 66-17 66-93S39-220 2-261h31" id="U"/><g id="i"><use transform="matrix(0.0987654320987654,0,0,0.0987654320987654,0,0)" xlink:href="#T"/><use transform="matrix(0.0987654320987654,0,0,0.0987654320987654,19.753086419753078,0)" xlink:href="#U"/></g><path fill="#3a414a" d="M30 0v-248h187v28H63v79h144v27H63v87h162V0H30" id="V"/><g id="j"><use transform="matrix(0.06172839506172839,0,0,0.06172839506172839,0,0)" xlink:href="#V"/><use transform="matrix(0.06172839506172839,0,0,0.06172839506172839,14.814814814814813,0)" xlink:href="#D"/><use transform="matrix(0.06172839506172839,0,0,0.06172839506172839,33.2716049382716,0)" xlink:href="#t"/><use transform="matrix(0.06172839506172839,0,0,0.06172839506172839,45.61728395061728,0)" xlink:href="#F"/><use transform="matrix(0.06172839506172839,0,0,0.06172839506172839,50.49382716049382,0)" xlink:href="#E"/><use transform="matrix(0.06172839506172839,0,0,0.06172839506172839,62.8395061728395,0)" xlink:href="#B"/><use transform="matrix(0.06172839506172839,0,0,0.06172839506172839,69.01234567901234,0)" xlink:href="#P"/><use transform="matrix(0.06172839506172839,0,0,0.06172839506172839,81.35802469135803,0)" xlink:href="#C"/></g><path fill="#3a414a" d="M0 4l72-265h28L28 4H0" id="W"/><use transform="matrix(0.06172839506172839,0,0,0.06172839506172839,0,0)" xlink:href="#W" id="k"/><path fill="#3a414a" d="M233-177c-1 41-23 64-60 70L243 0h-38l-65-103H63V0H30v-248c88 3 205-21 203 71zM63-129c60-2 137 13 137-47 0-61-80-42-137-45v92" id="X"/><g id="l"><use transform="matrix(0.06172839506172839,0,0,0.06172839506172839,0,0)" xlink:href="#X"/><use transform="matrix(0.06172839506172839,0,0,0.06172839506172839,15.987654320987653,0)" xlink:href="#r"/><use transform="matrix(0.06172839506172839,0,0,0.06172839506172839,28.333333333333332,0)" xlink:href="#F"/><use transform="matrix(0.06172839506172839,0,0,0.06172839506172839,33.20987654320987,0)" xlink:href="#E"/><use transform="matrix(0.06172839506172839,0,0,0.06172839506172839,45.55555555555555,0)" xlink:href="#F"/></g><path fill="#3a414a" d="M108 0H70L1-190h34L89-25l56-165h34" id="Y"/><path fill="#3a414a" d="M96-169c-40 0-48 33-48 73s9 75 48 75c24 0 41-14 43-38l32 2c-6 37-31 61-74 61-59 0-76-41-82-99-10-93 101-131 147-64 4 7 5 14 7 22l-32 3c-4-21-16-35-41-35" id="Z"/><g id="m"><use transform="matrix(0.06172839506172839,0,0,0.06172839506172839,0,0)" xlink:href="#q"/><use transform="matrix(0.06172839506172839,0,0,0.06172839506172839,15.987654320987653,0)" xlink:href="#r"/><use transform="matrix(0.06172839506172839,0,0,0.06172839506172839,28.333333333333332,0)" xlink:href="#Y"/><use transform="matrix(0.06172839506172839,0,0,0.06172839506172839,39.44444444444444,0)" xlink:href="#R"/><use transform="matrix(0.06172839506172839,0,0,0.06172839506172839,44.32098765432099,0)" xlink:href="#Z"/><use transform="matrix(0.06172839506172839,0,0,0.06172839506172839,55.4320987654321,0)" xlink:href="#r"/></g><path fill="#3a414a" d="M27 0v-27h64v-190l-56 39v-29l58-41h29v221h61V0H27" id="aa"/><use transform="matrix(0.06172839506172839,0,0,0.06172839506172839,0,0)" xlink:href="#aa" id="n"/><use transform="matrix(0.06172839506172839,0,0,0.06172839506172839,0,0)" xlink:href="#T" id="o"/><g id="p"><use transform="matrix(0.0987654320987654,0,0,0.0987654320987654,0,0)" xlink:href="#aa"/><use transform="matrix(0.0987654320987654,0,0,0.0987654320987654,19.753086419753078,0)" xlink:href="#U"/></g></defs></g></svg>